<?xml version="1.0" encoding="iso-8859-1"?>
<!-- Generator: Adobe Illustrator 19.0.0, SVG Export Plug-In . SVG Version: 6.00 Build 0)  -->
<svg version="1.1" id="Capa_1" xmlns="http://www.w3.org/2000/svg" xmlns:xlink="http://www.w3.org/1999/xlink" x="0px" y="0px"
	 viewBox="0 0 488.8 488.8" style="enable-background:new 0 0 488.8 488.8;" xml:space="preserve">
<g>
	<g>
		<path d="M488.8,368.5c0-5.8-2.6-11.3-7-14.9c-24.7-20.3-51.4-33.8-56.8-36.4c-0.6-0.3-1-0.9-1-1.6v-38.5c4.8-3.2,8-8.7,8-15v-39.9
			c0-19.9-16.1-36-36-36h-4.3h-4.3c-19.9,0-36,16.1-36,36v39.9c0,6.3,3.2,11.7,8,15v38.5c0,0.7-0.4,1.3-1,1.6
			c-5.4,2.7-32.1,16.1-56.8,36.4c-4.5,3.7-7,9.2-7,14.9v27.3h97h97v-27.3H488.8z"/>
		<path d="M260.8,176.9l-2.3-0.3c-3.1-0.4-6.1-0.7-9-1.4c-10.4-2.3-20.3-7-31.5-14.7c-1.7-1.2-3.7-2.6-6.5-2.6s-4.8,1.4-6.5,2.6
			c-14.9,10.3-28.2,15.4-42,16.3c-3.6,0.2-9.7,1.7-9.7,10.2v13.8c0,9.3-0.1,18.7,0,27.9c0,3.7,0.5,7.7,1.4,12c2.1,9.3,7,17.8,15,26
			c9.9,10,22.3,17.7,38.2,23.7c1.1,0.4,2.2,0.5,3.3,0.5l0,0c1.6,0,3.1-0.4,4.2-0.9l4-1.8c3.3-1.4,6.7-2.9,10.1-4.6
			c12.6-6.6,22.2-14.5,29.4-24.2c6.4-8.4,9.8-17.4,10.2-26.6c0.3-6.2,0.3-12.5,0.3-18.6v-27.6C269.5,181.3,266.3,177.7,260.8,176.9z
			 M255.3,232.2c-0.3,6.5-2.7,12.7-7.4,18.9c-5.9,8-14,14.6-24.5,20.2c-3.1,1.5-6.2,2.9-9.3,4.2c-0.9,0.4-1.7,0.8-2.7,1.2v-51h-44.1
			c-0.1-8.3,0-16.6,0-24.8v-10.4c14.7-1.5,28.9-7.1,44.1-17.4v52.7h44.1C255.5,227.9,255.4,230.1,255.3,232.2z"/>
		<path d="M25.1,395.8h248.6v-27.3c0-12.1,5.4-23.5,14.7-31.2c8.1-6.7,16.3-12.5,24-17.7H62.9v-28v-9.8V129.9c0,0,0-0.1,0.1-0.1
			h175.7h121.6c0.1,0,0.1,0,0.1,0.1v42.2c8.1-4.4,17.3-6.9,27.1-6.9h8.6c0.4,0,0.8,0.1,1.2,0.1V130c0-20.4-16.6-37-37-37H221.9l0,0
			H63c-20.4,0-37,16.6-37,37v151.9v8.1v27.2c0,4.8-1.7,9.5-4.7,13.2L2.2,353.8c-1.4,1.8-2.2,4-2.2,6.3v10.7
			C0,384.6,11.2,395.8,25.1,395.8z M171.5,356.5h80.1v2.7c0,7-5.7,12.8-12.8,12.8h-54.6c-7,0-12.8-5.7-12.8-12.8v-2.7H171.5z"/>
	</g>
</g>
<g>
</g>
<g>
</g>
<g>
</g>
<g>
</g>
<g>
</g>
<g>
</g>
<g>
</g>
<g>
</g>
<g>
</g>
<g>
</g>
<g>
</g>
<g>
</g>
<g>
</g>
<g>
</g>
<g>
</g>
</svg>
