<?xml version="1.0" encoding="iso-8859-1"?>
<!-- Generator: Adobe Illustrator 19.0.0, SVG Export Plug-In . SVG Version: 6.00 Build 0)  -->
<svg version="1.1" id="Capa_1" xmlns="http://www.w3.org/2000/svg" xmlns:xlink="http://www.w3.org/1999/xlink" x="0px" y="0px"
	 viewBox="0 0 490 490" style="enable-background:new 0 0 490 490;" xml:space="preserve">
<g>
	<g>
		<path d="M416.4,369.6v-48.2c0-10.2-4.5-19.9-12.4-26.3c-43.6-35.8-90.6-59.6-100.1-64.2c-1.1-0.5-1.8-1.6-1.8-2.8v-67.8
			c8.5-5.7,14.2-15.4,14.2-26.4V63.4c0-35-28.4-63.4-63.4-63.4h-7.6h-7.6c-35,0-63.4,28.4-63.4,63.4v70.4c0,11,5.6,20.7,14.2,26.4
			V228c0,1.2-0.7,2.3-1.8,2.8c-9.6,4.7-56.6,28.4-100.1,64.2c-7.9,6.5-12.4,16.2-12.4,26.3v48.2h171.1h171.1V369.6z"/>
		<path d="M257.4,478.9v6.2c0,2.7,2.2,4.8,4.8,4.8h55c2.7,0,4.8-2.2,4.8-4.8v-6.2c0-2.7-2.2-4.8-4.8-4.8h-55
			C259.5,474.1,257.4,476.3,257.4,478.9z"/>
		<path d="M130.5,415.3l-1.9-3.3c-0.8-1.4-2.6-1.9-4-1.1l-13.8,8V403c0-1.6-1.3-2.9-2.9-2.9H104c-1.6,0-2.9,1.3-2.9,2.9v16l-13.8-8
			c-1.4-0.8-3.2-0.3-4,1.1l-1.9,3.3c-0.8,1.4-0.3,3.2,1.1,4l13.9,8.1l-13.9,8.1c-1.4,0.8-1.9,2.6-1.1,4l1.9,3.3
			c0.8,1.4,2.6,1.9,4,1.1l13.8-8v15.9c0,1.6,1.3,2.9,2.9,2.9h3.8c1.6,0,2.9-1.3,2.9-2.9V436l13.8,8c1.4,0.8,3.2,0.3,4-1.1l1.9-3.3
			c0.8-1.4,0.3-3.2-1.1-4l-13.9-8.1l13.9-8.1C130.8,418.5,131.3,416.7,130.5,415.3z"/>
		<path d="M291.6,400.1h-3.8c-1.6,0-2.9,1.3-2.9,2.9v16l-13.8-8c-1.4-0.8-3.2-0.3-4,1.1l-1.9,3.3c-0.8,1.4-0.3,3.2,1.1,4l13.9,8.1
			l-13.9,8.1c-1.4,0.8-1.9,2.6-1.1,4l1.9,3.3c0.8,1.4,2.6,1.9,4,1.1l13.8-8v15.9c0,1.6,1.3,2.9,2.9,2.9h3.8c1.6,0,2.9-1.3,2.9-2.9
			V436l13.8,8c1.4,0.8,3.2,0.3,4-1.1l1.9-3.3c0.8-1.4,0.3-3.2-1.1-4l-13.9-8.1l13.9-8.1c1.4-0.8,1.9-2.6,1.1-4l-1.9-3.3
			c-0.8-1.4-2.6-1.9-4-1.1l-13.8,8v-16C294.5,401.4,293.2,400.1,291.6,400.1z"/>
		<path d="M349.2,478.9v6.2c0,2.7,2.2,4.8,4.8,4.8h55c2.7,0,4.8-2.2,4.8-4.8v-6.2c0-2.7-2.2-4.8-4.8-4.8h-55
			C351.4,474.1,349.2,476.3,349.2,478.9z"/>
		<path d="M357,439.5l1.9,3.3c0.8,1.4,2.6,1.9,4,1.1l13.8-8v15.9c0,1.6,1.3,2.9,2.9,2.9h3.8c1.6,0,2.9-1.3,2.9-2.9v-15.9l13.8,8
			c1.4,0.8,3.2,0.3,4-1.1l1.9-3.3c0.8-1.4,0.3-3.2-1.1-4l-13.9-8.1l13.9-8.1c1.4-0.8,1.9-2.6,1.1-4l-1.9-3.3c-0.8-1.4-2.6-1.9-4-1.1
			l-13.8,8V403c0-1.6-1.3-2.9-2.9-2.9h-3.8c-1.6,0-2.9,1.3-2.9,2.9v16l-13.8-8c-1.4-0.8-3.2-0.3-4,1.1l-1.9,3.3
			c-0.8,1.4-0.3,3.2,1.1,4l13.9,8.1l-13.9,8.1C356.6,436.3,356.1,438.1,357,439.5z"/>
		<path d="M78.4,490h55c2.7,0,4.8-2.2,4.8-4.8V479c0-2.7-2.2-4.8-4.8-4.8h-55c-2.7,0-4.8,2.2-4.8,4.8v6.2
			C73.6,487.8,75.8,490,78.4,490z"/>
		<path d="M165.5,478.9v6.2c0,2.7,2.2,4.8,4.8,4.8h55c2.7,0,4.8-2.2,4.8-4.8v-6.2c0-2.7-2.2-4.8-4.8-4.8h-55
			C167.6,474.1,165.5,476.3,165.5,478.9z"/>
		<path d="M173.2,439.5l1.9,3.3c0.8,1.4,2.6,1.9,4,1.1l13.8-8v15.9c0,1.6,1.3,2.9,2.9,2.9h3.8c1.6,0,2.9-1.3,2.9-2.9v-15.9l13.8,8
			c1.4,0.8,3.2,0.3,4-1.1l1.9-3.3c0.8-1.4,0.3-3.2-1.1-4l-13.9-8.1l13.9-8.1c1.4-0.8,1.9-2.6,1.1-4l-1.9-3.3c-0.8-1.4-2.6-1.9-4-1.1
			l-13.8,8V403c0-1.6-1.3-2.9-2.9-2.9h-3.8c-1.6,0-2.9,1.3-2.9,2.9v16l-13.8-8c-1.4-0.8-3.2-0.3-4,1.1l-1.9,3.3
			c-0.8,1.4-0.3,3.2,1.1,4l13.9,8.1l-13.9,8.1C172.9,436.3,172.4,438.1,173.2,439.5z"/>
	</g>
</g>
<g>
</g>
<g>
</g>
<g>
</g>
<g>
</g>
<g>
</g>
<g>
</g>
<g>
</g>
<g>
</g>
<g>
</g>
<g>
</g>
<g>
</g>
<g>
</g>
<g>
</g>
<g>
</g>
<g>
</g>
</svg>
