<?xml version="1.0" encoding="iso-8859-1"?>
<!-- Generator: Adobe Illustrator 19.0.0, SVG Export Plug-In . SVG Version: 6.00 Build 0)  -->
<svg version="1.1" id="Capa_1" xmlns="http://www.w3.org/2000/svg" xmlns:xlink="http://www.w3.org/1999/xlink" x="0px" y="0px"
	 viewBox="0 0 488.152 488.152" style="enable-background:new 0 0 488.152 488.152;" xml:space="preserve">
<g>
	<g>
		<path d="M394.6,478.326L394.6,478.326c2.6,0,5.1-0.6,6.8-1.4l6.5-2.8c5.3-2.3,10.7-4.6,16.2-7.4c20.2-10.6,35.7-23.4,47.2-39
			c10.2-13.5,15.8-27.9,16.4-42.9c0.5-10,0.5-20.2,0.4-30v-44.4c0-8.6-5.2-14.4-14.1-15.6l-3.8-0.5c-5.1-0.6-9.9-1.2-14.4-2.2
			c-16.7-3.7-32.7-11.2-50.6-23.7c-2.8-2-5.9-4.2-10.5-4.2s-7.7,2.2-10.4,4.1c-23.9,16.5-45.4,24.8-67.6,26.1
			c-5.8,0.3-15.6,2.8-15.6,16.5v22.2c0,15-0.1,30,0,44.9c0,6,0.7,12.3,2.3,19.3c3.4,15,11.3,28.6,24.2,41.8
			c15.9,16.1,35.8,28.5,61.5,38.2C391,478.026,392.8,478.326,394.6,478.326z M323.7,373.226c-0.1-13.3-0.1-26.7,0-40v-16.8
			c23.7-2.4,46.4-11.4,71-28v84.7h70.9c-0.1,3.5-0.1,7-0.3,10.5c-0.5,10.5-4.4,20.4-12,30.4c-9.6,12.9-22.5,23.6-39.5,32.4
			c-4.9,2.5-9.9,4.6-14.9,6.8c-1.4,0.6-2.8,1.2-4.3,1.9v-82h-70.9V373.226z"/>
		<path d="M136.1,288.826c-9.6,4.7-51.4,25.8-95.7,58.1c-25.2,18.4-40.4,47.6-40.4,78.8v21.1c0,5.5,4.4,9.9,9.9,9.9h90.5h12.7h187.6
			h15.4c-1-1-2.1-1.9-3.1-2.9c-15.7-16.1-25.4-33-29.7-51.8c-1.9-8.5-2.8-16.2-2.8-23.8c-0.1-14.1-0.1-28.4-0.1-42.7l0.1-24.5
			c0-6.9,1.5-13.1,4.3-18.4c-3.2-1.7-5.7-2.9-7.3-3.7c-1.3-0.6-2.1-1.9-2.1-3.4v-82.1c10.3-6.9,17.1-18.6,17.1-31.9v-85.1
			c0-42.3-34.3-76.6-76.6-76.6h-9.2h-9.2c-42.3,0-76.6,34.3-76.6,76.6v85.1c0,13.3,6.8,25,17.1,31.9v82
			C138.1,286.926,137.4,288.226,136.1,288.826z"/>
	</g>
</g>
<g>
</g>
<g>
</g>
<g>
</g>
<g>
</g>
<g>
</g>
<g>
</g>
<g>
</g>
<g>
</g>
<g>
</g>
<g>
</g>
<g>
</g>
<g>
</g>
<g>
</g>
<g>
</g>
<g>
</g>
</svg>
